<?xml version="1.0" encoding="utf-8"?>
<!-- Generator: Adobe Illustrator 24.3.0, SVG Export Plug-In . SVG Version: 6.00 Build 0)  -->
<svg version="1.1" xmlns="http://www.w3.org/2000/svg" xmlns:xlink="http://www.w3.org/1999/xlink" x="0px" y="0px"
	 viewBox="0 0 1080 1080" style="enable-background:new 0 0 1080 1080;" xml:space="preserve">
<style type="text/css">
	.st0{fill:url(#SVGID_1_);}
</style>
<g id="Layer_1">
</g>
<g id="Layer_2">
	<linearGradient id="SVGID_1_" gradientUnits="userSpaceOnUse" x1="532.9008" y1="305.5256" x2="545.7354" y2="901.157">
		<stop  offset="0.3041" style="stop-color:#F58033"/>
		<stop  offset="0.8305" style="stop-color:#D69F3E"/>
	</linearGradient>
	<path class="st0" d="M834,554.95c0,0-196.28-228.38-256.82-286.17c-60.53-57.78-100.89,0-100.89,0l-255.9,318.27
		c-34.16,60.54,8.03,104.56,8.03,104.56s101.81,106.63,139.64,132.08c37.84,25.45,72.92-6.19,72.92-6.19s231.82-240.08,244.2-255.9
		c12.39-15.82,22.7-3.44,22.7-3.44s18.58,26.83,48.84,59.16c30.27,32.33,0,52.97,0,52.97l-70.16,68.79c0,0-27.52-26.83-48.84-45.4
		c-21.33-18.58-30.96-4.13-30.96-4.13s-26.14,25.45-40.58,39.9c-14.45,14.44,3.67,29.12,3.67,29.12l89.88,73.37
		c42.19,13.76,68.79-5.5,68.79-5.5s37.61-32.1,112.82-117.4S834,554.95,834,554.95z M402.46,740.45l-83.93-77.04
		c0,0-14.44-16.51,6.19-37.15c20.64-20.63,44.03-50.9,44.03-50.9s10.32-19.95,26.83-10.32l66.72,68.79l55.04-59.85l-72.23-77.73
		c0,0-15.82-13.07,8.94-34.4c24.76-21.32,82.55-83.23,82.55-83.23l93.55,97.68L402.46,740.45z"/>
</g>
</svg>
